<svg width="80" height="80" viewBox="0 0 80 80" fill="none" xmlns="http://www.w3.org/2000/svg">
<g clip-path="url(#clip0_2020_1158)">
<path d="M73.2783 60.94C66.6778 59.1009 58.0628 60.4509 51.4806 62.3953L51.481 62.3845C51.476 61.8697 51.1324 61.5439 50.7283 61.4233C50.6905 61.1862 50.5905 60.9634 50.4385 60.7775C40.3364 48.75 16.7899 46.886 2.73009 51.482C2.1987 51.6556 1.9359 52.0482 1.85425 52.4734C1.80878 52.5541 1.78448 52.6449 1.78361 52.7375C1.78274 52.83 1.80533 52.9213 1.84927 53.0028C1.97528 53.685 2.55641 54.272 3.43059 54.0237C3.57235 53.9831 3.7195 53.9516 3.8625 53.9126C12.71 57.2845 21.8041 60.1981 31.0806 62.0869C35.3135 62.9487 44.4341 65.427 48.9849 63.3462C45.5827 70.8913 30.8597 69.5939 24.3603 68.8657C16.1441 67.9455 -0.137006 63.8875 1.04017 52.7524C1.08411 52.3367 0.406817 52.2542 0.317285 52.6546C-2.46566 65.1095 13.7164 69.6922 23.1371 70.9456C28.3109 71.6341 44.1879 72.8855 49.6245 67.1587C49.6236 67.3233 49.6767 67.4837 49.7633 67.628C49.6846 67.7569 49.6365 67.8866 49.7028 68.0027C49.7413 68.069 49.8093 68.0843 49.8794 68.0744C50.046 68.0512 50.2193 68.0441 50.39 68.0309C50.407 68.0329 50.4186 68.0416 50.436 68.0429C55.728 68.4715 61.0095 69.8687 66.296 70.5025C69.1747 70.8474 77.7764 72.4457 79.5712 68.7931C81.5198 64.8284 76.3667 61.8013 73.2783 60.94ZM31.67 59.9498C23.0625 58.4497 14.7891 55.6162 6.38638 53.2983C18.2216 50.7388 32.1156 52.2741 42.7616 57.6224C43.8795 58.1836 47.9379 61.6716 48.429 61.1796C46.2894 63.325 33.9129 60.3402 31.67 59.9498ZM73.7297 68.631C65.8546 69.1794 58.2353 66.268 50.4369 66.3579C50.3672 66.3588 50.315 66.382 50.2545 66.3948C50.4855 66.0732 50.6864 65.7311 50.8547 65.3727C51.0852 65.4398 51.3363 65.4688 51.6277 65.3984C57.1269 64.062 62.6012 62.974 68.2873 62.9188C71.425 62.8882 75.214 63.2359 77.1472 66.0168C78.7841 68.3695 75.2082 68.5283 73.7297 68.631ZM15.4013 30.6741C12.2362 26.7136 6.71425 25.4091 9.39565 19.4495C9.75709 18.6462 8.82074 17.7902 8.12769 18.4713C4.99491 21.5497 5.81852 25.1493 8.69266 28.0031C12.6723 31.9545 17.9679 34.1484 13.7736 40.3958C13.3777 40.9856 14.3104 41.7147 14.7618 41.1589C17.524 37.7562 18.2552 34.2454 15.4013 30.6741ZM29.0205 8.48307C27.9233 8.16598 27.4139 9.64242 28.2794 10.2405C32.3925 13.084 35.0871 15.0989 32.8435 20.3178C31.4876 23.4722 29.3244 26.2709 27.6887 29.2814C25.2109 33.8417 24.6583 38.7655 29.2439 42.0695C29.8595 42.513 30.492 41.5759 30.0207 41.0627C23.8169 34.3101 32.3183 26.9656 35.1564 20.5835C37.594 15.103 34.6328 10.1046 29.0205 8.48307ZM59.2939 21.4217C58.6116 20.6486 57.2608 21.2625 57.2877 22.2527C57.3773 25.5422 59.1642 28.0396 55.7648 30.3243C53.4606 31.8733 50.5301 32.4672 47.942 33.3771C43.3775 34.9812 40.4346 37.743 42.5357 42.7145C42.8847 43.5389 44.2268 42.9462 43.9678 42.1106C41.9015 35.4483 51.1336 35.1843 55.4142 33.4343C60.035 31.5446 63.1421 25.7801 59.2939 21.4217Z" fill="white"/>
</g>
<defs>
<clipPath id="clip0_2020_1158">
<rect width="80" height="80" fill="white"/>
</clipPath>
</defs>
</svg>
