<svg xmlns="http://www.w3.org/2000/svg" width="421" height="357" viewBox="0 0 421 357" fill="none">
    <path d="M420.5 20.7344C419.669 23.8279 413.209 30.182 412.697 33.1918C411.61 39.9639 414.936 42.9738 412.697 48.5754C409.052 57.7721 407.133 63.2065 409.883 66.9688C415.767 74.9951 413.465 85.1951 411.802 92.6361C411.162 95.3115 410.523 98.0705 410.651 99.4918C411.099 104.508 408.412 106.682 406.622 108.187C404.319 110.11 401.697 112.2 401.249 121.146L401.121 123.905C400.546 135.192 399.586 153.836 401.377 157.18C405.215 159.521 398.819 174.152 397.924 179.42C397.092 184.102 401.569 180.674 402.784 185.189C404.767 192.546 401.377 204.502 398.051 216.123C396.708 220.889 394.918 227.326 394.854 229.5C396.325 232.51 394.534 240.369 395.046 249.148C395.301 253.161 397.732 256.923 398.243 258.846C398.371 258.93 398.499 259.013 398.627 259.097C403.296 262.107 400.034 262.775 396.325 274.062C393.702 281.921 392.167 290.282 389.225 293.125C385.708 296.469 385.516 296.636 387.051 300.148C388.778 304.244 390.441 305.666 391.912 307.003C394.726 309.428 396.133 311.852 395.493 317.12C395.365 318.29 395.173 319.628 394.79 321.133L389.225 318.959C389.993 315.448 389.865 314.611 389.801 314.528C389.737 314.361 389.098 313.859 388.714 313.441C388.586 313.357 388.458 313.19 388.33 313.107C388.33 313.107 383.725 321.133 383.661 321.133C380.016 321.133 374.516 320.966 374.516 320.966H367.033C367.033 320.966 359.55 320.966 358.271 324.561C356.992 328.072 352.003 328.072 350.788 331.667C349.509 335.262 343.305 324.561 342.026 328.072C340.747 331.667 335.758 331.667 335.758 331.667H333.264L325.781 328.072H318.362L315.868 331.667C315.868 331.667 309.6 335.262 308.385 331.667C307.106 328.072 305.891 331.667 305.891 331.667H300.902C300.902 331.667 297.448 332.336 296.169 335.848C294.89 339.443 289.646 335.179 288.367 335.179C287.855 335.179 285.68 331.584 283.378 331.584C280.372 331.584 277.11 335.179 277.11 335.179L270.843 338.774L264.575 335.179C264.575 335.179 258.627 341.449 257.604 342.87C256.58 344.292 253.319 342.285 253.319 342.285L249.417 349.057L247.754 353.489L243.469 356.498L235.667 357L230.806 349.392L220.829 342.285L215.201 341.449L208.357 342.285H200.875L193.392 339.861L188.403 342.285H175.932L173.118 339.61L168.385 342.285L164.611 345.88L156.809 340.78L153.867 338.774L149.646 340.78L143.378 342.369C143.378 342.369 139.605 338.857 137.11 338.857C134.616 338.857 133.785 342.954 132.25 341.533C130.779 340.111 134.616 335.262 128.348 338.857C126.046 340.111 125.087 340.697 124.703 341.031C124.767 340.948 124.767 340.864 124.575 340.864C123.552 340.864 123.04 345.88 120.098 347.218C117.092 348.639 118.115 338.857 117.092 338.857C116.133 338.857 113.638 338.857 112.167 340.864C110.696 342.787 110.76 344.71 107.179 344.125C103.661 343.539 103.981 341.533 100.847 342.452C97.7773 343.289 96.8819 346.131 96.8819 346.131L95.0272 350.144C95.0272 350.144 93.3003 343.038 92.0852 343.707C90.806 344.375 87.3524 343.707 85.8815 342.452C84.4105 341.198 83.1313 340.864 82.3639 340.864C81.5964 340.864 79.6138 345.63 78.3986 344.375C77.1195 343.121 74.6252 342.452 74.6252 338.857C74.6252 335.262 72.1309 335.262 70.8518 338.857C69.5726 342.369 67.9737 341.533 64.4561 341.533C61.0025 341.533 61.9619 345.797 60.8746 345.964C59.7234 346.131 56.2698 347.97 53.3917 353.07C50.4498 358.171 44.6297 347.97 43.4146 349.475C42.1994 351.064 35.1003 343.874 32.542 344.71C29.9838 345.546 27.1697 338.774 24.3556 340.78C21.4776 342.703 20.1345 343.623 20.1345 343.623C20.1345 343.623 20.1345 343.623 18.4717 342.369C17.2565 341.449 15.8495 340.028 14.2506 339.359L13.2273 339.443L11.1807 338.105L8.43058 319.795C8.43058 316.033 8.04683 315.448 7.34332 314.444C5.87232 312.354 4.52923 309.846 4.52923 303.074C4.52923 302.572 4.52924 302.238 4.46529 301.903C3.82573 301.402 3.44199 300.733 3.18617 300.148C2.22682 297.807 2.22681 297.807 6.44791 285.433L13.2912 281.838C17.6402 269.129 14.9541 266.287 14.0587 261.103C13.675 258.93 8.62245 258.093 8.43058 255.167C7.47124 255.502 6.25606 255.502 5.10485 254.331C2.9943 251.99 2.86637 247.643 4.52923 235.603C6.25605 223.313 0.883721 214.033 1.84306 212.277C1.90702 210.856 3.56989 207.177 3.56989 202.328C3.56989 181.844 8.36659 188.115 5.36065 183.851C1.13955 177.748 3.12219 168.384 5.04087 159.354C5.55252 156.929 6.12816 154.421 6.51189 151.997C7.6631 145.475 6.0642 137.867 6.19211 131.179C6.32002 126.998 8.30266 123.738 8.30266 119.641C8.30266 118.22 8.1108 117.802 8.1108 117.802C8.04684 117.634 7.53518 117.384 7.2154 117.216C3.82572 115.21 0.5 112.033 0.5 97.4016C0.5 82.1852 0.499992 81.6 1.97098 77.4197C2.54659 75.8311 3.31406 73.5738 4.52923 68.3066C5.80835 62.9557 7.53516 57.6885 11.4365 58.2738C11.4365 58.2738 11.4365 58.2738 11.4365 58.1901C11.6284 57.1869 12.7796 55.2639 12.204 52.3377C9.13407 36.4524 11.8202 26.3361 9.13408 22.5738C4.52924 15.9689 4.40131 14.7148 4.40131 2.92623C4.40131 1.92295 4.46527 0.919672 4.52923 0H10.4132C10.4132 0.0836066 10.4132 0.167203 10.4132 0.250809C13.675 0.418023 18.6635 1.50491 24.1638 6.10327C26.8499 8.36065 29.0245 11.1197 31.0071 13.6279C35.9957 19.982 37.1469 20.818 40.2807 16.6377C48.9148 5.43442 57.8047 5.43443 65.6713 5.43443H81.2126C83.579 5.43443 85.2419 4.51474 86.9047 3.59507C89.9107 1.83933 93.7481 -0.334431 98.8646 6.60491C105.196 15.0492 110.121 15.9689 111.976 15.9689C114.342 15.9689 121.761 13.7951 125.854 12.4574L142.994 5.43443H188.019L193.52 9.36395L199.02 6.60491L212.834 5.43443L213.602 9.86556L229.399 8.8623L235.155 12.2902L249.481 9.78198L268.988 5.43443L276.791 15.5508L309.152 24.2459L328.083 9.28033L332.049 6.60491C334.671 9.94918 338.572 12.959 339.595 11.6213C344.2 5.60163 345.096 5.43443 353.346 5.43443H353.986C361.596 5.43443 366.713 7.69179 375.475 15.3C378.097 17.641 382.19 17.4738 383.15 18.8115C383.278 19.0623 383.405 19.2295 383.597 19.3967C384.812 18.5607 387.435 15.8853 390.185 13.1262L392.231 11.0361C402.209 6.2705 406.43 11.5377 417.686 6.43772L420.5 20.7344Z" fill="url(#paint0_linear_2020_1281)"/>
    <defs>
        <linearGradient id="paint0_linear_2020_1281" x1="37.637" y1="372.265" x2="454.024" y2="53.743" gradientUnits="userSpaceOnUse">
            <stop stop-color="#EBEBEB"/>
            <stop offset="0.4576" stop-color="#F5F5F5"/>
            <stop offset="1" stop-color="#FAFAFA"/>
        </linearGradient>
    </defs>
</svg>