<svg xmlns="http://www.w3.org/2000/svg" width="54" height="54" viewBox="0 0 54 54" fill="none">
    <g clip-path="url(#clip0_2020_1317)">
        <path d="M27 0C15.8355 0 6.75 9.1485 6.75 20.3963C6.75 36.378 25.0965 52.8795 25.8773 53.5725C26.1859 53.8488 26.5854 54.0017 26.9996 54.0021C27.4138 54.0025 27.8136 53.8504 28.1227 53.5748C28.9035 52.8795 47.25 36.378 47.25 20.3963C47.25 9.1485 38.1645 0 27 0ZM27 31.5C20.7968 31.5 15.75 26.4533 15.75 20.25C15.75 14.0468 20.7968 9 27 9C33.2033 9 38.25 14.0468 38.25 20.25C38.25 26.4533 33.2033 31.5 27 31.5Z" fill="#D72A28"/>
    </g>
    <defs>
        <clipPath id="clip0_2020_1317">
            <rect width="54" height="54" fill="white"/>
        </clipPath>
    </defs>
</svg>