<svg width="1440" height="930" viewBox="0 0 1440 930" fill="none" xmlns="http://www.w3.org/2000/svg">
<path d="M0.000132151 930L5.37271e-05 32.9333C1.83241 32.9333 0.916006 30.5105 2.06123 31.9238C2.51931 32.3276 3.89369 29.5009 5.03891 29.0971C8.24553 28.2894 9.84884 27.2799 13.0555 25.4628C14.4297 24.6552 19.0105 26.8762 20.3848 26.2705L32.0662 20.617L41.9149 20.4151C41.9149 20.4151 42.8313 25.059 53.8254 29.9047C55.1997 30.5104 60.9258 28.6933 64.1324 27.8857C70.0875 26.0685 72.1489 15.3675 79.2492 16.377C82.2268 15.3675 96.6565 16.7809 100.321 14.1561C107.88 9.10847 113.377 6.28174 121.164 7.29127C122.309 6.68555 138.114 5.87793 139.03 5.27221C144.527 1.83981 142.923 1.03224 153.23 1.03224C153.23 1.03224 156.666 -2.40021 161.705 3.25315C170.18 12.9446 185.526 16.377 187.358 16.5789C196.52 17.3865 196.291 24.2513 197.207 26.6742C197.207 26.8761 201.788 29.5008 201.788 29.7027C203.849 29.7027 206.827 28.8952 208.659 28.8952C216.218 28.6933 222.402 26.6743 229.502 33.3371C236.144 33.1352 241.183 31.52 244.39 29.9047C245.306 29.5009 247.138 24.6552 247.826 24.2514C258.82 16.9828 266.378 24.6551 270.272 28.4913C271.188 28.0875 282.182 27.8857 283.328 27.28C289.283 23.8476 290.657 21.4246 299.59 21.6265C300.735 19.4055 311.729 16.5789 312.645 13.9541L327.304 22.0303C326.846 24.4532 338.527 24.4533 339.214 25.8666L341.734 26.2704C343.108 26.4723 344.024 26.6742 344.711 26.8761L345.398 26.6741C347.002 26.4722 349.521 26.0684 353.873 25.6646C367.616 24.2513 364.409 23.0399 374.029 31.3181C374.487 31.7219 383.878 26.4722 384.336 26.6741C385.252 20.2132 394.872 24.0494 401.972 20.4151C406.324 18.1941 412.05 15.3674 417.089 16.9827C427.854 20.2132 428.312 25.4628 431.29 29.9047C431.29 29.9047 431.519 29.9046 431.519 30.1066C431.748 30.1066 431.977 30.3085 431.977 30.3085C433.58 30.9143 436.787 32.1257 442.742 34.3466C443.658 32.5295 450.988 37.9809 453.278 36.5676C460.149 32.3275 461.982 26.2704 469.769 32.3276C470.685 32.9333 472.06 34.1447 472.518 34.1447C475.724 34.1447 483.97 30.5104 489.238 27.4818L502.523 31.7218L521.762 29.5009C521.762 29.5009 544.438 33.7408 551.767 32.1256C554.516 31.5199 560.013 29.7028 563.677 27.4818C568.258 24.857 566.426 24.0494 568.487 23.2418C572.381 22.0304 578.336 24.0494 578.336 24.0494C578.336 24.0494 586.811 29.2989 590.247 30.1065C594.14 31.1161 606.28 30.5104 606.28 30.5104L615.441 27.4818C615.441 27.4818 624.603 23.4437 628.039 23.2418C632.849 22.6361 643.385 27.8856 643.385 27.8856L664.457 27.2799C664.457 27.2799 670.183 36.3656 684.613 31.1161C687.59 30.1065 692.171 28.8951 696.752 27.8856C701.333 26.8761 705.914 26.0685 709.12 25.8666C711.869 25.6647 716.908 22.4342 723.55 23.2418C728.36 23.8475 734.544 28.0875 739.125 28.8951C745.996 29.9047 751.264 30.7122 751.264 30.7122L765.694 27.4818C765.694 27.4818 778.979 26.2703 783.331 25.6646C789.973 24.857 789.286 21.2227 795.241 18.1942C804.174 13.7522 842.882 32.7313 847.463 32.7313C852.044 32.5294 855.021 27.6837 859.831 29.299C867.848 31.9237 874.719 35.558 874.719 35.558C874.719 35.558 897.166 35.1542 902.205 39.1923C907.473 43.2304 916.634 38.7884 916.634 38.7884C923.506 37.3751 924.88 38.7885 930.606 44.0381C931.522 44.8457 936.332 40.8076 942.516 45.4514C948.471 49.4895 958.778 45.2495 963.13 48.0762C963.13 48.0762 973.208 41.817 978.247 41.2113C983.973 40.4037 1004.36 43.8361 1004.36 43.8361L1005.5 44.6437C1008.48 46.6628 1016.27 50.9028 1021.54 50.9028C1023.37 50.7009 1027.72 47.8742 1029.09 46.6628C1031.84 44.6437 1035.05 42.6247 1039.17 42.2208C1039.86 42.0189 1051.08 36.1636 1052 35.7598C1068.26 30.3084 1074.9 32.3274 1080.17 41.817C1081.09 43.0284 1090.02 47.6723 1095.75 47.8742L1109.72 50.7009C1118.88 44.4418 1134.46 46.6628 1147.97 51.5086L1150.26 52.3161C1150.26 52.3161 1150.72 63.4209 1154.15 65.0361C1171.56 73.3143 1183.93 65.0361 1183.93 65.0361L1207.06 50.7009L1218.51 50.7009C1222.18 50.7009 1238.21 51.1047 1247.6 59.1809C1248.98 58.3733 1250.35 57.5657 1251.5 56.7581C1259.06 52.1142 1262.26 53.5275 1270.74 55.3447C1275.09 56.3542 1278.98 62.0076 1280.81 65.642C1281.73 66.6515 1290.66 58.979 1293.18 59.9885C1300.05 62.4114 1308.53 65.6419 1312.65 72.9105C1315.4 74.7277 1326.17 76.3429 1335.33 76.3429L1366.71 76.3429L1369.45 77.7563C1375.18 80.583 1397.63 77.5543 1403.58 80.179C1413.66 84.621 1407.93 88.8611 1413.43 89.8706C1418.7 85.0249 1426.72 87.0439 1440 85.6305L1440 930L0.000132151 930Z" fill="white"/>
</svg>
