<svg width="81" height="80" viewBox="0 0 81 80" fill="none" xmlns="http://www.w3.org/2000/svg">
<path fill-rule="evenodd" clip-rule="evenodd" d="M47.4417 19.5936C47.1208 19.5936 46.8514 19.8257 46.7949 20.1314C46.4009 22.2717 45.678 26.1955 45.052 29.5931L50.7571 28.208C49.8333 25.2023 48.8674 22.0609 48.307 20.2428C48.1849 19.8529 47.8311 19.5936 47.4417 19.5936ZM51.5197 30.6894L44.5377 32.3845C44.4248 32.9969 44.3219 33.5554 44.233 34.0379L43.8906 35.8958L43.8903 35.8974L43.8903 35.8978C43.8902 35.8979 43.8902 35.8979 42.8593 35.7018L43.8902 35.8979C43.7605 36.6019 43.0937 37.0657 42.4009 36.9339C41.7081 36.802 41.2516 36.1245 41.3813 35.4206L42.4122 35.6167C41.3814 35.4206 41.3814 35.4205 41.3814 35.4204L41.7241 33.5606C41.9347 32.4178 42.2237 30.8493 42.5374 29.1467C43.1648 25.7415 43.891 21.7998 44.2861 19.6535L44.2863 19.6525C44.5717 18.1092 45.9042 17 47.4417 17C48.9528 17 50.286 18.0008 50.741 19.4616L50.7421 19.4654C51.3992 21.5972 52.6142 25.5493 53.6648 28.968C54.1901 30.6774 54.6744 32.2537 55.0273 33.4025C55.2038 33.9769 55.3474 34.4445 55.4469 34.7685L55.6017 35.2724L55.6018 35.2728C55.6018 35.2729 55.6018 35.2729 54.3835 35.6592C53.1652 36.0456 53.1652 36.0455 53.1652 36.0454L53.1651 36.045L53.0103 35.5412C52.9108 35.2173 52.7672 34.7497 52.5907 34.1753C52.3042 33.2426 51.9311 32.0281 51.5197 30.6894ZM35.16 19.1702C35.8649 19.1702 36.4363 19.7508 36.4363 20.467V29.1243C36.4366 29.1413 36.4366 29.1582 36.4363 29.175V35.6592C36.4363 36.3754 35.8649 36.956 35.16 36.956C34.4552 36.956 33.8838 36.3754 33.8838 35.6592V30.7301L26.1482 32.3021L27.827 37.4194C28.0499 38.0988 27.6885 38.8332 27.0198 39.0597C26.3511 39.2862 25.6283 38.919 25.4054 38.2395L23.2743 31.7432C23.2714 31.7345 23.2685 31.7259 23.2658 31.7171L21.1336 25.2177C20.9107 24.5382 21.2721 23.8038 21.9408 23.5773C22.6095 23.3509 23.3322 23.7181 23.5551 24.3975L25.3348 29.8224L33.8838 28.0852V20.467C33.8838 19.7508 34.4552 19.1702 35.16 19.1702ZM54.7638 36.8971C54.0909 37.1105 53.3752 36.7292 53.1652 36.0456L54.3835 35.6592L55.6018 35.2729C55.8118 35.9566 55.4366 36.6838 54.7638 36.8971ZM60.033 40.9121C60.7168 41.0858 61.1325 41.7899 60.9616 42.4847L58.2916 53.3362C58.1206 54.031 57.4277 54.4535 56.7439 54.2798C56.0601 54.106 55.6443 53.402 55.8153 52.7072L58.4853 41.8556C58.6563 41.1608 59.3492 40.7384 60.033 40.9121ZM21.0824 43.0587C21.779 42.9498 22.4307 43.4354 22.5378 44.1432L23.3571 49.5545H30.2478L30.6843 44.2327C30.7428 43.519 31.3597 42.9886 32.0621 43.0481C32.7645 43.1076 33.2865 43.7344 33.228 44.4481L32.6942 50.9571C32.694 50.9593 32.6938 50.9616 32.6936 50.9639L32.16 57.47C32.1015 58.1837 31.4846 58.714 30.7822 58.6546C30.0798 58.5951 29.5578 57.9683 29.6163 57.2546L30.0351 52.1481H23.7498L24.6737 58.2503C24.7809 58.9582 24.303 59.6203 23.6063 59.7292C22.9097 59.8381 22.258 59.3526 22.1509 58.6447L20.015 44.5376C19.9078 43.8297 20.3857 43.1676 21.0824 43.0587ZM39.9196 46.2293C40.2689 44.3899 41.8454 43.0436 43.7039 43.0436C45.5587 43.0436 47.1407 44.3567 47.5349 46.1804C47.5355 46.1831 47.5361 46.1858 47.5366 46.1885C47.9743 48.2764 48.663 51.5442 49.2424 54.2905C49.532 55.6635 49.7943 56.906 49.9842 57.8053C50.0538 58.1347 50.1137 58.4181 50.1616 58.645L50.2915 59.26L50.2916 59.2603C50.2916 59.2604 50.2916 59.2604 49.0438 59.5326C47.796 59.8048 47.7959 59.8048 47.7959 59.8047L47.7959 59.8044L47.7956 59.8032L47.7135 59.4143C47.6603 59.1629 47.5835 58.799 47.4885 58.3494C47.3789 57.83 47.245 57.1962 47.0957 56.4888H40.6247C40.3577 57.9359 40.1164 59.2434 39.9371 60.2151L39.6184 61.9416L39.6183 61.9419C39.6183 61.942 39.6183 61.942 38.4716 61.7235L39.6183 61.942C39.4884 62.646 38.8215 63.1096 38.1287 62.9775C37.4359 62.8455 36.9796 62.1678 37.1096 61.4639L38.2532 61.6819C37.1096 61.4639 37.1096 61.4639 37.1096 61.4638L37.1097 61.4634L37.4283 59.7371C37.6249 58.672 37.8959 57.2036 38.1936 55.5901C38.789 52.3631 39.4911 48.5563 39.9183 46.2365L39.9196 46.2293ZM41.1032 53.8953H46.5485C46.0166 51.3733 45.4302 48.5894 45.0411 46.7333C44.9002 46.0891 44.3469 45.6372 43.7039 45.6372C43.0855 45.6372 42.5482 46.0844 42.4265 46.7176C42.0924 48.5319 41.5906 51.2531 41.1032 53.8953ZM55.761 58.2746C56.4448 58.4482 56.8606 59.1523 56.6896 59.8471L56.4227 60.9322C56.2517 61.627 55.5588 62.0495 54.875 61.8758C54.1912 61.7021 53.7754 60.9981 53.9464 60.3033L54.2133 59.2181C54.3843 58.5233 55.0772 58.1009 55.761 58.2746ZM49.3117 60.8005C48.6225 60.9509 47.9439 60.5051 47.796 59.8048L49.0438 59.5326L50.2916 59.2604C50.4395 59.9607 50.0008 60.6502 49.3117 60.8005Z" fill="white"/>
<g clip-path="url(#clip0_2020_3512)">
<g clip-path="url(#clip1_2020_3512)">
<path d="M55.7095 2.91498C22.7682 -10.8216 -7.23873 26.7873 5.16421 57.3281C12.0992 73.9987 32.504 79.6 48.1077 71.4648C48.3747 78.5333 56.5099 79.7332 62.1113 80.0001C62.7781 80.0001 63.4449 79.1997 63.1782 78.5333C62.6447 76.9329 61.1775 76.6662 60.2439 75.3326C59.177 73.8658 59.177 71.8651 58.9105 70.1313C92.3847 62.6629 81.0489 13.451 55.7095 2.91498ZM57.9767 67.8641C57.4435 67.9973 57.1765 68.3976 57.1765 68.931C56.9096 69.0642 56.7764 69.3311 56.7764 69.7312C56.6431 71.5981 56.9096 73.5988 57.7098 75.3326C57.9767 75.9996 58.3768 76.666 58.7767 77.1995L59.0436 77.4664C54.9091 77.0663 50.7752 75.7327 49.4416 71.198C49.3084 70.9313 49.0415 70.6648 48.7745 70.6648C48.7745 70.3978 48.5076 70.2647 48.2411 70.2647C39.3058 72.2652 30.1037 73.732 21.1682 70.3979C11.0325 66.5303 6.23134 56.5281 4.89769 46.3922C2.76364 29.0547 12.4993 11.7173 28.9032 5.31576C45.5738 -1.21912 63.5783 5.98259 71.9803 21.4529C81.0489 37.9902 78.5149 61.9961 57.9767 67.8641Z" fill="white"/>
</g>
</g>
<defs>
<clipPath id="clip0_2020_3512">
<rect width="80" height="80" fill="white" transform="translate(0.5)"/>
</clipPath>
<clipPath id="clip1_2020_3512">
<rect width="80" height="80" fill="white" transform="translate(1)"/>
</clipPath>
</defs>
</svg>
