<svg width="81" height="80" viewBox="0 0 81 80" fill="none" xmlns="http://www.w3.org/2000/svg">
<path d="M41.9233 57.7176C42.5939 57.1176 43.1116 56.3646 43.4175 55.5058C44.2645 53.7411 44.6292 51.7058 44.841 49.6705C44.9116 49.4352 44.9586 49.1999 45.041 48.9646C45.0528 48.9176 45.0528 48.8587 45.0528 48.8117C45.1822 48.7764 45.2998 48.7293 45.4175 48.694C46.0582 48.6071 46.6745 48.3909 47.2292 48.0587C49.7351 46.5176 50.0881 43.094 50.2763 41.2587C52.8645 16.2587 53.0763 15.6587 52.6998 12.4234C51.8998 5.62345 47.441 2.0705 41.0175 1.91756C37.9822 1.84698 35.0528 2.54109 32.2175 3.22345C30.2998 3.68227 27.9234 4.24698 26.2881 5.96462C24.5939 7.75286 24.1939 10.2587 23.8763 12.2705L20.3822 34.2352C20.0057 36.6234 19.4292 40.2234 21.0175 42.8823C21.0998 42.9999 21.1586 43.1882 21.7351 43.847C22.841 46.2823 25.3586 47.3764 27.9586 47.9999C27.8881 48.1999 27.8292 48.3999 27.7939 48.5999C27.041 52.094 26.1469 56.4352 28.8528 58.847C29.441 59.3764 30.1469 59.7293 30.8881 59.9882V69.5529C27.2645 69.9058 22.0763 70.8117 22.0763 73.1529C22.0763 73.4234 22.1704 73.6823 22.3116 73.9176C22.1586 74.847 22.4881 75.7529 23.6763 76.5293C24.8645 77.3058 26.3351 77.4587 27.7469 77.5881C34.1939 78.1646 40.841 78.6587 46.9822 76.6587C48.5351 76.1529 50.0998 75.3646 50.1939 73.7176C50.2645 73.5411 50.2998 73.3529 50.2998 73.1646C50.2998 70.5646 43.8881 69.7293 40.3586 69.4705V59.047C41.4528 58.3411 41.7469 57.9176 41.9233 57.7176ZM29.8175 54.5411C30.1586 52.5293 30.6528 50.5411 31.2881 48.5999C33.8645 48.9646 36.4528 49.1764 39.0528 49.247C37.5704 56.4705 37.6057 57.1646 37.0057 57.6117C36.6528 57.8705 36.0528 57.8823 35.4528 57.847C34.1234 57.7764 32.7939 57.6117 31.4881 57.3529C29.9116 57.0234 29.4645 56.6587 29.8175 54.5411ZM40.8528 49.2705C41.6292 49.2705 42.3822 49.2587 43.1586 49.1764C42.659 50.9061 42.2351 52.6568 41.8881 54.4234C41.6292 55.7999 40.5704 56.8705 39.2175 57.1999C39.3822 56.6705 39.3116 56.894 40.8528 49.2705ZM43.5351 47.0234C41.5939 45.247 40.2528 41.9293 40.4292 39.494C43.0175 40.5176 44.6881 43.894 46.041 46.6705C45.3351 47.0117 44.4645 47.047 43.5351 47.0234ZM41.1704 46.9999C39.5822 47.0117 38.2057 47.0234 36.9939 46.9881C34.6998 44.8705 33.5469 41.5293 34.0645 38.447V38.3529C35.6881 38.5411 37.241 38.7882 38.6998 39.0705C38.3822 41.7882 39.5586 44.8705 41.1704 46.9999ZM34.5116 46.8352C32.3469 46.6117 31.041 46.247 29.5822 45.8587C29.4175 45.4587 26.9351 42.5999 26.6528 37.8587C28.5822 37.9058 30.4881 38.0117 32.3234 38.1881C31.8292 41.1881 32.6763 44.3882 34.5116 46.8352ZM24.8763 37.8234C25.0057 40.3529 25.7469 42.8587 27.0057 45.0705C22.8998 43.6117 21.5939 41.7176 21.7351 37.8705C22.7822 37.8352 23.8292 37.8234 24.8763 37.8234ZM27.5822 7.17639C28.8528 5.83521 30.9469 5.32933 32.641 4.92933C35.3704 4.28227 38.2057 3.58815 40.9939 3.6705C44.0292 3.74109 46.6175 4.72933 48.2998 6.43521C50.1116 8.28227 50.7469 10.8117 50.9586 12.6117C51.241 14.9882 50.9822 17.447 50.7351 19.8352C48.3469 42.294 48.6175 43.4587 47.4057 45.4117C46.0763 42.7176 44.4528 39.647 41.8763 38.2117L42.3351 34.2117C43.2528 34.5764 44.4292 35.1646 45.0763 35.6117C45.4763 35.894 46.0292 35.7882 46.2998 35.3881C46.5822 34.9882 46.4763 34.4352 46.0763 34.1646C45.2175 33.5646 43.641 32.7882 42.5351 32.3999C42.7234 30.694 42.8998 28.9882 43.0763 27.2823C43.9704 27.7058 44.8292 28.1882 45.641 28.7293C46.041 28.9999 46.5939 28.9058 46.8645 28.494C47.1351 28.094 47.041 27.5411 46.6292 27.2705C45.641 26.5999 44.5939 26.0117 43.4998 25.5176C43.4168 25.4856 43.3297 25.4658 43.241 25.4587C43.4175 23.7293 43.5822 21.9881 43.7469 20.2587C44.6528 20.4705 45.5351 20.8587 46.2998 21.3999C46.4528 21.5058 46.6292 21.5529 46.8057 21.5529C47.6645 21.5529 48.0175 20.447 47.3116 19.9411C46.0998 19.1058 44.6292 18.5764 43.9116 18.4823C44.0881 16.5058 44.2528 14.5411 44.4175 12.5764L47.0528 14.1293C47.4763 14.3764 48.0175 14.2352 48.2645 13.8234C48.5116 13.3999 48.3704 12.8587 47.9469 12.6117L44.7116 10.7058C44.663 10.6832 44.6115 10.6673 44.5586 10.6587C44.6763 9.11756 44.8057 7.58815 44.9116 6.04698C44.9196 5.93105 44.9046 5.81468 44.8675 5.70457C44.8304 5.59445 44.7719 5.49274 44.6954 5.40529C44.6188 5.31784 44.5258 5.24637 44.4216 5.19497C44.3174 5.14357 44.204 5.11327 44.0881 5.1058C43.6175 5.08227 43.1822 5.43521 43.1469 5.92933C42.4057 16.4352 41.4057 27.0587 40.1586 37.5411C40.0175 37.5176 32.9704 35.7293 21.8763 36.0705C21.9939 35.1764 22.1233 34.4234 22.4175 32.5764C22.7586 32.6587 21.8998 32.6352 29.3939 32.2587C29.8763 32.2352 30.2528 31.8117 30.2292 31.3293C30.2057 30.847 29.7939 30.447 29.2998 30.494L22.6881 30.847L23.2528 27.2823C23.3116 27.294 23.3704 27.3176 23.4292 27.3176C23.7939 27.3176 27.2998 26.3529 32.3469 26.7176C32.8292 26.7529 33.2528 26.3882 33.2881 25.9058C33.3234 25.4234 32.9586 24.9999 32.4763 24.9646C29.4881 24.7529 26.4881 24.9411 23.5351 25.5293L24.2763 20.894C26.0057 20.5176 27.8292 20.3058 29.6881 20.2823C30.1704 20.2705 30.5586 19.8705 30.5586 19.3881C30.5546 19.1565 30.46 18.9356 30.2951 18.7728C30.1301 18.6101 29.908 18.5185 29.6763 18.5176C28.4057 18.5176 26.4292 18.694 24.5822 19.047L25.2998 14.5176C28.4763 13.1764 31.9586 12.647 35.3822 12.9764C35.8645 13.0352 36.2998 12.6705 36.3469 12.1882C36.3939 11.7058 36.041 11.2705 35.5586 11.2234C32.2057 10.894 28.7939 11.3411 25.6292 12.494C25.9822 10.3411 26.3704 8.45874 27.5822 7.17639ZM39.4645 72.3764C39.9469 72.3764 40.3469 71.9764 40.3469 71.494V71.2234C45.6998 71.6352 48.1116 72.6587 48.4998 73.1529C47.9351 73.9293 43.5351 75.2352 36.1822 75.2352C28.8175 75.2352 24.4175 73.9293 23.8645 73.1529C24.2175 72.7176 26.2881 71.7764 30.8881 71.3176V71.9646C30.8881 72.447 31.2881 72.847 31.7704 72.847C32.2528 72.847 32.6528 72.447 32.6528 71.9646V60.3764C34.8998 60.694 36.9116 60.4705 38.5822 59.8823V71.5058C38.5822 71.9764 38.9822 72.3764 39.4645 72.3764ZM56.6057 3.17639C56.4054 3.05704 56.1663 3.021 55.9398 3.07599C55.7132 3.13098 55.5172 3.27262 55.3939 3.4705L53.1469 7.16462C52.8998 7.57639 53.0292 8.11756 53.441 8.37639C53.8528 8.62345 54.3939 8.49403 54.6528 8.08227L56.8998 4.38815C57.1586 3.97639 57.0292 3.43521 56.6057 3.17639ZM60.9351 8.32933C60.8813 8.22713 60.8078 8.13658 60.7188 8.06289C60.6299 7.9892 60.5273 7.93381 60.4168 7.89992C60.3064 7.86603 60.1904 7.8543 60.0754 7.8654C59.9604 7.8765 59.8488 7.91022 59.7469 7.96462C58.6175 8.56462 57.3586 8.92933 56.0881 9.02345C55.6057 9.05874 55.241 9.48227 55.2763 9.96462C55.3116 10.4117 55.6881 10.7999 56.2175 10.7764C57.7234 10.6587 59.2292 10.2234 60.5704 9.51756C61.0057 9.29403 61.1704 8.75286 60.9351 8.32933ZM55.9351 14.5411C57.0645 14.4117 58.2528 14.6705 59.2057 15.2705C59.6175 15.5293 60.1586 15.4117 60.4175 14.9882C60.6763 14.5764 60.5469 14.0352 60.1351 13.7764C58.8175 12.9529 57.2528 12.5999 55.7116 12.7882C55.2292 12.847 54.8881 13.2823 54.9469 13.7646C55.0057 14.2587 55.4528 14.5999 55.9351 14.5411Z" fill="white"/>
</svg>
