<svg xmlns="http://www.w3.org/2000/svg" width="358" height="357" viewBox="0 0 358 357" fill="none">
    <path d="M357.5 20.7344C356.793 23.8279 351.303 30.182 350.868 33.1918C349.944 39.9639 352.77 42.9738 350.868 48.5754C347.769 57.7721 346.138 63.2065 348.476 66.9688C353.477 74.9951 351.52 85.1951 350.107 92.6361C349.563 95.3115 349.019 98.0705 349.128 99.4918C349.509 104.508 347.225 106.682 345.703 108.187C343.746 110.11 341.517 112.2 341.137 121.146L341.028 123.905C340.539 135.192 339.723 153.836 341.246 157.18C344.507 159.521 339.071 174.152 338.31 179.42C337.603 184.102 341.409 180.674 342.442 185.189C344.127 192.546 341.246 204.502 338.419 216.123C337.277 220.889 335.755 227.326 335.701 229.5C336.951 232.51 335.429 240.369 335.864 249.148C336.081 253.161 338.147 256.923 338.582 258.846C338.691 258.93 338.799 259.013 338.908 259.097C342.876 262.107 340.104 262.775 336.951 274.062C334.722 281.921 333.417 290.282 330.917 293.125C327.927 296.469 327.764 296.636 329.068 300.148C330.536 304.244 331.95 305.666 333.2 307.003C335.592 309.428 336.788 311.852 336.244 317.12C336.135 318.29 335.972 319.628 335.646 321.133L330.917 318.959C331.569 315.448 331.46 314.611 331.406 314.528C331.352 314.361 330.808 313.859 330.482 313.441C330.373 313.357 330.264 313.19 330.156 313.107C330.156 313.107 326.241 321.133 326.187 321.133C323.088 321.133 318.413 320.966 318.413 320.966H312.053C312.053 320.966 305.692 320.966 304.605 324.561C303.518 328.072 299.278 328.072 298.245 331.667C297.157 335.262 291.884 324.561 290.797 328.072C289.71 331.667 285.469 331.667 285.469 331.667H283.349L276.989 328.072H270.683L268.563 331.667C268.563 331.667 263.235 335.262 262.202 331.667C261.115 328.072 260.082 331.667 260.082 331.667H255.842C255.842 331.667 252.906 332.336 251.819 335.848C250.732 339.443 246.274 335.179 245.187 335.179C244.752 335.179 242.903 331.584 240.946 331.584C238.391 331.584 235.619 335.179 235.619 335.179L230.291 338.774L224.964 335.179C224.964 335.179 219.908 341.449 219.038 342.87C218.168 344.292 215.396 342.285 215.396 342.285L212.08 349.057L210.666 353.489L207.024 356.498L200.392 357L196.26 349.392L187.78 342.285L182.996 341.449L177.179 342.285H170.818L164.458 339.861L160.218 342.285H149.617L147.225 339.61L143.202 342.285L139.995 345.88L133.363 340.78L130.862 338.774L127.274 340.78L121.946 342.369C121.946 342.369 118.739 338.857 116.619 338.857C114.499 338.857 113.792 342.954 112.487 341.533C111.237 340.111 114.499 335.262 109.171 338.857C107.214 340.111 106.399 340.697 106.072 341.031C106.127 340.948 106.127 340.864 105.964 340.864C105.094 340.864 104.659 345.88 102.158 347.218C99.6032 348.639 100.473 338.857 99.6033 338.857C98.7878 338.857 96.6676 338.857 95.4173 340.864C94.167 342.787 94.2214 344.71 91.1771 344.125C88.1871 343.539 88.4589 341.533 85.7951 342.452C83.1857 343.289 82.4246 346.131 82.4246 346.131L80.8481 350.144C80.8481 350.144 79.3803 343.038 78.3474 343.707C77.2601 344.375 74.3246 343.707 73.0742 342.452C71.8239 341.198 70.7366 340.864 70.0843 340.864C69.4319 340.864 67.7467 345.63 66.7138 344.375C65.6266 343.121 63.5064 342.452 63.5064 338.857C63.5064 335.262 61.3863 335.262 60.299 338.857C59.2117 342.369 57.8527 341.533 54.8627 341.533C51.9271 341.533 52.7426 345.797 51.8184 345.964C50.8399 346.131 47.9043 347.97 45.458 353.07C42.9573 358.171 38.0103 347.97 36.9774 349.475C35.9445 351.064 29.9102 343.874 27.7357 344.71C25.5612 345.546 23.1693 338.774 20.7773 340.78C18.331 342.703 17.1894 343.623 17.1894 343.623C17.1894 343.623 17.1893 343.623 15.7759 342.369C14.743 341.449 13.5471 340.028 12.188 339.359L11.3182 339.443L9.57858 338.105L7.24099 319.795C7.24099 316.033 6.91481 315.448 6.31682 314.444C5.06648 312.354 3.92485 309.846 3.92485 303.074C3.92485 302.572 3.92486 302.238 3.8705 301.903C3.32687 301.402 3.00069 300.733 2.78324 300.148C1.9678 297.807 1.96779 297.807 5.55573 285.433L11.3725 281.838C15.0692 269.129 12.786 266.287 12.0249 261.103C11.6987 258.93 7.40408 258.093 7.24099 255.167C6.42555 255.502 5.39265 255.502 4.41412 254.331C2.62015 251.99 2.51141 247.643 3.92485 235.603C5.39264 223.313 0.826163 214.033 1.6416 212.277C1.69597 210.856 3.1094 207.177 3.1094 202.328C3.1094 181.844 7.1866 188.115 4.63155 183.851C1.04361 177.748 2.72886 168.384 4.35974 159.354C4.79464 156.929 5.28393 154.421 5.61011 151.997C6.58864 145.475 5.22957 137.867 5.3383 131.179C5.44702 126.998 7.13226 123.738 7.13226 119.641C7.13226 118.22 6.96918 117.802 6.96918 117.802C6.91481 117.634 6.4799 117.384 6.20809 117.216C3.32686 115.21 0.5 112.033 0.5 97.4016C0.5 82.1852 0.499993 81.6 1.75034 77.4197C2.2396 75.8311 2.89195 73.5738 3.92485 68.3066C5.0121 62.9557 6.47989 57.6885 9.79601 58.2738C9.79601 58.2738 9.79601 58.2738 9.79601 58.1901C9.9591 57.1869 10.9376 55.2639 10.4484 52.3377C7.83896 36.4524 10.1222 26.3361 7.83897 22.5738C3.92485 15.9689 3.81611 14.7148 3.81611 2.92623C3.81611 1.92295 3.87048 0.919672 3.92485 0H8.92622C8.92622 0.0836066 8.92622 0.167203 8.92622 0.250809C11.6987 0.418023 15.939 1.50491 20.6142 6.10327C22.8974 8.36065 24.7458 11.1197 26.431 13.6279C30.6713 19.982 31.6498 20.818 34.3136 16.6377C41.6526 5.43442 49.209 5.43443 55.8956 5.43443H69.1057C71.1172 5.43443 72.5306 4.51474 73.944 3.59507C76.4991 1.83933 79.7609 -0.334431 84.1099 6.60491C89.4918 15.0492 93.6777 15.9689 95.2543 15.9689C97.2657 15.9689 103.572 13.7951 107.051 12.4574L121.62 5.43443H159.891L164.567 9.36395L169.242 6.60491L180.984 5.43443L181.637 9.86556L195.064 8.8623L199.957 12.2902L212.134 9.78198L228.715 5.43443L235.347 15.5508L262.854 24.2459L278.946 9.28033L282.316 6.60491C284.545 9.94918 287.861 12.959 288.731 11.6213C292.645 5.60163 293.406 5.43443 300.419 5.43443H300.963C307.432 5.43443 311.781 7.69179 319.229 15.3C321.458 17.641 324.937 17.4738 325.752 18.8115C325.861 19.0623 325.97 19.2295 326.133 19.3967C327.166 18.5607 329.395 15.8853 331.732 13.1262L333.472 11.0361C341.952 6.2705 345.54 11.5377 355.108 6.43772L357.5 20.7344Z" fill="url(#paint0_linear_2020_2467)"/>
    <defs>
        <linearGradient id="paint0_linear_2020_2467" x1="32.0664" y1="372.265" x2="426.39" y2="115.867" gradientUnits="userSpaceOnUse">
            <stop stop-color="#EBEBEB"/>
            <stop offset="0.4576" stop-color="#F5F5F5"/>
            <stop offset="1" stop-color="#FAFAFA"/>
        </linearGradient>
    </defs>
</svg>