<svg width="50" height="50" viewBox="0 0 50 50" fill="none" xmlns="http://www.w3.org/2000/svg">
<path fill-rule="evenodd" clip-rule="evenodd" d="M13.3721 50C5.98689 50 3.13382e-07 44.0131 1.00956e-06 36.6279L3.04256e-06 13.3721C3.73874e-06 5.98689 5.98689 4.51998e-07 13.3721 1.00956e-06L36.6279 2.76533e-06C44.0131 3.3229e-06 50 5.9869 50 13.3721L50 36.6279C50 44.0131 44.0131 50 36.6279 50L13.3721 50ZM3.48837 36.6279C3.48837 42.0865 7.91346 46.5116 13.3721 46.5116L36.6279 46.5116C42.0865 46.5116 46.5116 42.0865 46.5116 36.6279L46.5116 13.3721C46.5116 7.91347 42.0865 3.48838 36.6279 3.48838L13.3721 3.48837C7.91347 3.48837 3.48838 7.91347 3.48838 13.3721L3.48837 36.6279ZM21.4411 33.2101C20.7599 32.5289 20.7599 31.4246 21.4411 30.7434L26.7734 25.4111C27.0005 25.1841 27.0005 24.8159 26.7734 24.5889L21.4411 19.2566C20.7599 18.5754 20.7599 17.4711 21.4411 16.7899C22.1222 16.1088 23.2266 16.1088 23.9077 16.7899L29.2401 22.1222C30.8294 23.7116 30.8294 26.2884 29.2401 27.8778L23.9077 33.2101C23.2266 33.8912 22.1222 33.8912 21.4411 33.2101Z" fill="#E2E2E2"/>
</svg>
