<svg width="50" height="50" viewBox="0 0 50 50" fill="none" xmlns="http://www.w3.org/2000/svg">
<path fill-rule="evenodd" clip-rule="evenodd" d="M36.6279 4.36692e-07C44.0131 4.87239e-07 50 5.98689 50 13.3721L50 36.6279C50 44.0131 44.0131 50 36.6279 50L13.3721 50C5.98689 50 5.24851e-07 44.0131 4.36784e-07 36.6279L1.59461e-07 13.3721C7.1393e-08 5.98689 5.98689 3.86236e-07 13.3721 4.36784e-07L36.6279 4.36692e-07ZM46.5116 13.3721C46.5116 7.91347 42.0865 3.48837 36.6279 3.48837L13.3721 3.48837C7.91347 3.48837 3.48837 7.91347 3.48837 13.3721L3.48837 36.6279C3.48837 42.0865 7.91347 46.5116 13.3721 46.5116L36.6279 46.5116C42.0865 46.5116 46.5116 42.0865 46.5116 36.6279L46.5116 13.3721ZM28.5589 16.7899C29.2401 17.4711 29.2401 18.5754 28.5589 19.2566L23.2266 24.5889C22.9996 24.8159 22.9996 25.1841 23.2266 25.4111L28.5589 30.7434C29.2401 31.4246 29.2401 32.5289 28.5589 33.2101C27.8778 33.8912 26.7734 33.8912 26.0923 33.2101L20.7599 27.8778C19.1706 26.2884 19.1706 23.7116 20.7599 22.1222L26.0923 16.7899C26.7734 16.1088 27.8778 16.1088 28.5589 16.7899Z" fill="#D72A28"/>
</svg>
